<svg xmlns="http://www.w3.org/2000/svg" width="30" height="30" viewBox="0 0 30 30">
  <g id="vuesax_linear_warning-2" data-name="vuesax/linear/warning-2" transform="translate(-172 -700)">
    <g id="warning-2" transform="translate(172 700)">
      <path id="Vector" d="M0,0V6.563" transform="translate(15 9.688)" fill="none" stroke="#264653" stroke-linecap="round" stroke-linejoin="round" stroke-width="2"/>
      <path id="Vector-2" data-name="Vector" d="M22.713,8.225v8.55a3.967,3.967,0,0,1-1.963,3.413l-7.425,4.287a3.954,3.954,0,0,1-3.938,0L1.963,20.188A3.937,3.937,0,0,1,0,16.775V8.225A3.967,3.967,0,0,1,1.963,4.812L9.388.525a3.954,3.954,0,0,1,3.938,0L20.75,4.812A3.952,3.952,0,0,1,22.713,8.225Z" transform="translate(3.637 2.5)" fill="none" stroke="#264653" stroke-linecap="round" stroke-linejoin="round" stroke-width="2"/>
      <path id="Vector-3" data-name="Vector" d="M0,0H30V30H0Z" fill="none" opacity="0"/>
      <path id="Vector-4" data-name="Vector" d="M0,0V.125" transform="translate(15 20.25)" fill="none" stroke="#264653" stroke-linecap="round" stroke-linejoin="round" stroke-width="2"/>
    </g>
  </g>
</svg>
