<svg id="call" xmlns="http://www.w3.org/2000/svg" width="30" height="30" viewBox="0 0 30 30">
  <g id="call-2" data-name="call" transform="translate(2 2)">
    <path id="Vector" d="M25.97,21.229a3.308,3.308,0,0,1-.325,1.417,5.364,5.364,0,0,1-.884,1.326,5.863,5.863,0,0,1-2.133,1.534A6.532,6.532,0,0,1,20.092,26a10.841,10.841,0,0,1-4.239-.949,22.844,22.844,0,0,1-4.474-2.574,37.385,37.385,0,0,1-4.265-3.64,36.941,36.941,0,0,1-3.628-4.251A23.174,23.174,0,0,1,.936,10.153,10.946,10.946,0,0,1,0,5.9,6.723,6.723,0,0,1,.468,3.393a5.983,5.983,0,0,1,1.5-2.171A3.811,3.811,0,0,1,4.669,0,2.445,2.445,0,0,1,5.722.234a2.12,2.12,0,0,1,.871.728L9.61,5.213a4.449,4.449,0,0,1,.52.91,2.054,2.054,0,0,1,.182.793,1.764,1.764,0,0,1-.273.923,4.422,4.422,0,0,1-.728.923L8.323,9.789a.7.7,0,0,0-.208.52,1.18,1.18,0,0,0,.039.3c.039.1.078.182.1.26a10.788,10.788,0,0,0,1.209,1.664c.585.676,1.209,1.365,1.886,2.054.7.689,1.378,1.326,2.068,1.911a9.981,9.981,0,0,0,1.678,1.2c.065.026.143.065.234.1a.9.9,0,0,0,.325.052.716.716,0,0,0,.533-.221l.988-.975a3.99,3.99,0,0,1,.936-.728,1.732,1.732,0,0,1,.923-.273,2.076,2.076,0,0,1,.793.169,5.03,5.03,0,0,1,.91.507l4.3,3.055a1.972,1.972,0,0,1,.715.832A2.666,2.666,0,0,1,25.97,21.229Z" fill="none" stroke="#e66f51" stroke-width="2"/>
  </g>
  <path id="Vector-2" data-name="Vector" d="M0,0H30V30H0Z" fill="none" opacity="0"/>
</svg>
