<svg xmlns="http://www.w3.org/2000/svg" width="30" height="30" viewBox="0 0 30 30">
  <g id="vuesax_linear_tag-user" data-name="vuesax/linear/tag-user" transform="translate(-556 -252)">
    <g id="tag-user" transform="translate(556 252)">
      <path id="Vector" d="M18.75,21.075H17.8a3.734,3.734,0,0,0-2.65,1.087l-2.138,2.113a2.528,2.528,0,0,1-3.537,0L7.337,22.162a3.756,3.756,0,0,0-2.65-1.087H3.75A3.729,3.729,0,0,1,0,17.363V3.712A3.729,3.729,0,0,1,3.75,0h15A3.729,3.729,0,0,1,22.5,3.712V17.35A3.74,3.74,0,0,1,18.75,21.075Z" transform="translate(3.75 2.5)" fill="none" stroke="#264653" stroke-linecap="round" stroke-linejoin="round" stroke-width="2"/>
      <g id="Group" transform="translate(10.316 6.312)">
        <path id="Vector-2" data-name="Vector" d="M2.538,4.875H2.35A2.438,2.438,0,1,1,4.875,2.437,2.4,2.4,0,0,1,2.538,4.875Z" transform="translate(2.234)" fill="none" stroke="#264653" stroke-linecap="round" stroke-linejoin="round" stroke-width="2"/>
        <path id="Vector-3" data-name="Vector" d="M1.247.938a2.258,2.258,0,0,0,0,4.037,6.713,6.713,0,0,0,6.875,0,2.258,2.258,0,0,0,0-4.037A6.771,6.771,0,0,0,1.247.938Z" transform="translate(0 7.7)" fill="none" stroke="#264653" stroke-linecap="round" stroke-linejoin="round" stroke-width="2"/>
      </g>
      <path id="Vector-4" data-name="Vector" d="M0,0H30V30H0Z" fill="none" opacity="0"/>
    </g>
  </g>
</svg>
