<svg id="instagram_3_" data-name="instagram (3)" xmlns="http://www.w3.org/2000/svg" width="32" height="32" viewBox="0 0 32 32">
  <rect id="Rectangle_15" data-name="Rectangle 15" width="32" height="32" rx="16" fill="#e66f51"/>
  <path id="Path_6" data-name="Path 6" d="M15.668,19A3.333,3.333,0,1,1,19,22.334,3.333,3.333,0,0,1,15.668,19Zm-1.8,0A5.135,5.135,0,1,0,19,13.865,5.135,5.135,0,0,0,13.866,19Zm9.273-5.338a1.2,1.2,0,1,0,1.2-1.2h0a1.2,1.2,0,0,0-1.2,1.2ZM14.961,27.14A5.527,5.527,0,0,1,13.1,26.8a3.311,3.311,0,0,1-1.9-1.9,5.522,5.522,0,0,1-.344-1.857C10.813,21.987,10.8,21.671,10.8,19s.011-2.986.058-4.041a5.563,5.563,0,0,1,.344-1.857,3.309,3.309,0,0,1,1.9-1.9,5.523,5.523,0,0,1,1.857-.344c1.054-.048,1.371-.058,4.04-.058s2.986.01,4.041.058A5.564,5.564,0,0,1,24.9,11.2a3.309,3.309,0,0,1,1.9,1.9,5.522,5.522,0,0,1,.344,1.857c.048,1.055.058,1.371.058,4.041s-.01,2.986-.058,4.041A5.548,5.548,0,0,1,26.8,24.9a3.311,3.311,0,0,1-1.9,1.9,5.519,5.519,0,0,1-1.857.344c-1.054.049-1.371.058-4.041.058S16.014,27.188,14.961,27.14ZM14.878,9.061a7.333,7.333,0,0,0-2.427.464A5.112,5.112,0,0,0,9.526,12.45a7.335,7.335,0,0,0-.464,2.427C9.012,15.943,9,16.284,9,19s.011,3.057.061,4.123a7.334,7.334,0,0,0,.464,2.427,5.112,5.112,0,0,0,2.925,2.925,7.34,7.34,0,0,0,2.427.465C15.945,28.988,16.285,29,19,29s3.057-.011,4.123-.061a7.335,7.335,0,0,0,2.427-.465,5.112,5.112,0,0,0,2.925-2.925,7.316,7.316,0,0,0,.465-2.427c.048-1.067.06-1.407.06-4.123s-.011-3.057-.06-4.123a7.333,7.333,0,0,0-.465-2.427,5.114,5.114,0,0,0-2.924-2.925,7.323,7.323,0,0,0-2.427-.464C22.058,9.012,21.717,9,19,9S15.945,9.011,14.878,9.061Z" transform="translate(-3 -3)" fill="#fff"/>
</svg>
